RBDS010runT25_grf
version=1
nRows=37
nColumns=19
inDegrees=no
endheader
time	ground_force_r_vx	ground_force_r_vy	ground_force_r_vz	ground_force_r_px	ground_force_r_py	ground_force_r_pz	ground_force_r_mx	ground_force_r_my	ground_force_r_mz	ground_force_l_vx	ground_force_l_vy	ground_force_l_vz	ground_force_l_px	ground_force_l_py	ground_force_l_pz	ground_force_l_mx	ground_force_l_my	ground_force_l_mz
     22.49800000	     90.33314399	    266.90137066	     -4.38721252	      2.00827801	      0.00000000	      0.99412332	     -0.00000000	     21.28533881	     -0.00000000	      0.00000000	      0.00000000	      0.00000000	      0.00000000	      0.00000000	      0.00000000	      0.00000000	      0.00000000	      0.00000000
     22.49900000	     88.98276322	    256.06438051	     -4.65583712	      2.00613445	      0.00000000	      0.99400484	     -0.00000000	     21.37516419	     -0.00000000	      0.00000000	      0.00000000	      0.00000000	      0.00000000	      0.00000000	      0.00000000	      0.00000000	      0.00000000	      0.00000000
     22.50000000	     87.63238246	    245.22739036	     -4.92446172	      2.00399089	      0.00000000	      0.99388636	     -0.00000000	     21.46498956	     -0.00000000	      0.00000000	      0.00000000	      0.00000000	      0.00000000	      0.00000000	      0.00000000	      0.00000000	      0.00000000	      0.00000000
     22.50100000	     86.26709460	    235.07117186	     -5.22357730	      2.00194284	      0.00000000	      0.99377339	     -0.00000000	     21.54621212	     -0.00000000	      0.00000000	      0.00000000	      0.00000000	      0.00000000	      0.00000000	      0.00000000	      0.00000000	      0.00000000	      0.00000000
     22.50200000	     84.90180674	    224.91495337	     -5.52269288	      1.99989479	      0.00000000	      0.99366042	     -0.00000000	     21.62743468	     -0.00000000	      0.00000000	      0.00000000	      0.00000000	      0.00000000	      0.00000000	      0.00000000	      0.00000000	      0.00000000	      0.00000000
     22.50300000	     83.53651889	    214.75873487	     -5.82180846	      1.99784675	      0.00000000	      0.99354744	     -0.00000000	     21.70865725	     -0.00000000	      0.00000000	      0.00000000	      0.00000000	      0.00000000	      0.00000000	      0.00000000	      0.00000000	      0.00000000	      0.00000000
     22.50400000	     82.17629419	    205.07781050	     -6.13517109	      1.99587095	      0.00000000	      0.99343854	     -0.00000000	     21.78482622	     -0.00000000	      0.00000000	      0.00000000	      0.00000000	      0.00000000	      0.00000000	      0.00000000	      0.00000000	      0.00000000	      0.00000000
     22.50500000	     80.81860107	    195.63453319	     -6.45565724	      1.99393129	      0.00000000	      0.99333167	     -0.00000000	     21.85846840	     -0.00000000	      0.00000000	      0.00000000	      0.00000000	      0.00000000	      0.00000000	      0.00000000	      0.00000000	      0.00000000	      0.00000000
     22.50600000	     79.46090796	    186.19125587	     -6.77614339	      1.99199162	      0.00000000	      0.99322480	     -0.00000000	     21.93211057	     -0.00000000	      0.00000000	      0.00000000	      0.00000000	      0.00000000	      0.00000000	      0.00000000	      0.00000000	      0.00000000	      0.00000000
     22.50700000	     78.11286286	    176.99373827	     -7.10074338	      1.99009200	      0.00000000	      0.99312016	     -0.00000000	     22.00351742	     -0.00000000	      0.00000000	      0.00000000	      0.00000000	      0.00000000	      0.00000000	      0.00000000	      0.00000000	      0.00000000	      0.00000000
     22.50800000	     76.78411380	    168.28774007	     -7.43357105	      1.98827249	      0.00000000	      0.99301997	     -0.00000000	     22.07045361	     -0.00000000	      0.00000000	      0.00000000	      0.00000000	      0.00000000	      0.00000000	      0.00000000	      0.00000000	      0.00000000	      0.00000000
     22.50900000	     75.45536474	    159.58174187	     -7.76639872	      1.98645298	      0.00000000	      0.99291977	     -0.00000000	     22.13738979	     -0.00000000	      0.00000000	      0.00000000	      0.00000000	      0.00000000	      0.00000000	      0.00000000	      0.00000000	      0.00000000	      0.00000000
     22.51000000	     74.12661569	    150.87574367	     -8.09922639	      1.98463346	      0.00000000	      0.99281958	     -0.00000000	     22.20432597	     -0.00000000	      0.00000000	      0.00000000	      0.00000000	      0.00000000	      0.00000000	      0.00000000	      0.00000000	      0.00000000	      0.00000000
     22.51100000	     72.84657494	    142.92325735	     -8.43568362	      1.98294439	      0.00000000	      0.99272659	     -0.00000000	     22.26526267	     -0.00000000	      0.00000000	      0.00000000	      0.00000000	      0.00000000	      0.00000000	      0.00000000	      0.00000000	      0.00000000	      0.00000000
     22.51200000	     71.56653419	    134.97077103	     -8.77214086	      1.98125532	      0.00000000	      0.99263360	     -0.00000000	     22.32619936	     -0.00000000	      0.00000000	      0.00000000	      0.00000000	      0.00000000	      0.00000000	      0.00000000	      0.00000000	      0.00000000	      0.00000000
     22.51300000	     70.28649344	    127.01828471	     -9.10859809	      1.97956625	      0.00000000	      0.99254061	     -0.00000000	     22.38713605	     -0.00000000	      0.00000000	      0.00000000	      0.00000000	      0.00000000	      0.00000000	      0.00000000	      0.00000000	      0.00000000	      0.00000000
     22.51400000	     69.05075727	    119.57339884	     -9.44202670	      1.97796976	      0.00000000	      0.99245271	     -0.00000000	     22.44442770	     -0.00000000	      0.00000000	      0.00000000	      0.00000000	      0.00000000	      0.00000000	      0.00000000	      0.00000000	      0.00000000	      0.00000000
     22.51500000	     67.83717339	    112.38231319	     -9.77394099	      1.97641957	      0.00000000	      0.99236736	     -0.00000000	     22.49989683	     -0.00000000	      0.00000000	      0.00000000	      0.00000000	      0.00000000	      0.00000000	      0.00000000	      0.00000000	      0.00000000	      0.00000000
     22.51600000	     66.62358950	    105.19122754	    -10.10585528	      1.97486938	      0.00000000	      0.99228200	     -0.00000000	     22.55536595	     -0.00000000	      0.00000000	      0.00000000	      0.00000000	      0.00000000	      0.00000000	      0.00000000	      0.00000000	      0.00000000	      0.00000000
     22.51700000	     65.43726663	     98.25372423	    -10.43378168	      1.97336758	      0.00000000	      0.99219931	     -0.00000000	     22.60913417	     -0.00000000	      0.00000000	      0.00000000	      0.00000000	      0.00000000	      0.00000000	      0.00000000	      0.00000000	      0.00000000	      0.00000000
     22.51800000	     64.30546576	     91.82338558	    -10.75373228	      1.97196255	      0.00000000	      0.99212193	     -0.00000000	     22.65950055	     -0.00000000	      0.00000000	      0.00000000	      0.00000000	      0.00000000	      0.00000000	      0.00000000	      0.00000000	      0.00000000	      0.00000000
     22.51900000	     63.17366489	     85.39304693	    -11.07368288	      1.97055752	      0.00000000	      0.99204455	     -0.00000000	     22.70986694	     -0.00000000	      0.00000000	      0.00000000	      0.00000000	      0.00000000	      0.00000000	      0.00000000	      0.00000000	      0.00000000	      0.00000000
     22.52000000	     62.04186402	     78.96270829	    -11.39363349	      1.96915249	      0.00000000	      0.99196717	     -0.00000000	     22.76023333	     -0.00000000	      0.00000000	      0.00000000	      0.00000000	      0.00000000	      0.00000000	      0.00000000	      0.00000000	      0.00000000	      0.00000000
     22.52100000	     61.00438943	     73.28377492	    -11.69514564	      1.96789648	      0.00000000	      0.99189795	     -0.00000000	     22.80571636	     -0.00000000	      0.00000000	      0.00000000	      0.00000000	      0.00000000	      0.00000000	      0.00000000	      0.00000000	      0.00000000	      0.00000000
     22.52200000	     59.96691483	     67.60484156	    -11.99665780	      1.96664047	      0.00000000	      0.99182874	     -0.00000000	     22.85119939	     -0.00000000	      0.00000000	      0.00000000	      0.00000000	      0.00000000	      0.00000000	      0.00000000	      0.00000000	      0.00000000	      0.00000000
     22.52300000	     58.92944024	     61.92590819	    -12.29816995	      1.96538446	      0.00000000	      0.99175953	     -0.00000000	     22.89668242	     -0.00000000	      0.00000000	      0.00000000	      0.00000000	      0.00000000	      0.00000000	      0.00000000	      0.00000000	      0.00000000	      0.00000000
     22.52400000	     57.96116130	     56.73584307	    -12.58381554	      1.96422864	      0.00000000	      0.99169579	     -0.00000000	     22.93898204	     -0.00000000	      0.00000000	      0.00000000	      0.00000000	      0.00000000	      0.00000000	      0.00000000	      0.00000000	      0.00000000	      0.00000000
     22.52500000	     57.02748020	     51.79021207	    -12.86152785	      1.96312292	      0.00000000	      0.99163479	     -0.00000000	     22.97968995	     -0.00000000	      0.00000000	      0.00000000	      0.00000000	      0.00000000	      0.00000000	      0.00000000	      0.00000000	      0.00000000	      0.00000000
     22.52600000	     56.09379909	     46.84458108	    -13.13924016	      1.96201719	      0.00000000	      0.99157380	     -0.00000000	     23.02039787	     -0.00000000	      0.00000000	      0.00000000	      0.00000000	      0.00000000	      0.00000000	      0.00000000	      0.00000000	      0.00000000	      0.00000000
     22.52700000	     49.92421052	     39.19274438	    -11.99194353	      1.76515204	      0.00000000	      0.89237982	     -0.00000000	     20.74278283	     -0.00000000	      0.00000000	      0.00000000	      0.00000000	      0.00000000	      0.00000000	      0.00000000	      0.00000000	      0.00000000	      0.00000000
     22.52800000	     33.28280701	     26.12849625	     -7.99462902	      1.17676803	      0.00000000	      0.59491988	     -0.00000000	     13.82852189	     -0.00000000	      0.00000000	      0.00000000	      0.00000000	      0.00000000	      0.00000000	      0.00000000	      0.00000000	      0.00000000	      0.00000000
     22.52900000	     16.64140351	     13.06424813	     -3.99731451	      0.58838401	      0.00000000	      0.29745994	     -0.00000000	      6.91426094	     -0.00000000	      0.00000000	      0.00000000	      0.00000000	      0.00000000	      0.00000000	      0.00000000	      0.00000000	      0.00000000	      0.00000000
     22.53000000	      0.00000000	      0.00000000	      0.00000000	      0.00000000	      0.00000000	      0.00000000	      0.00000000	      0.00000000	      0.00000000	      0.00000000	      0.00000000	      0.00000000	      0.00000000	      0.00000000	      0.00000000	      0.00000000	      0.00000000	      0.00000000
     22.53100000	      0.00000000	      0.00000000	      0.00000000	      0.00000000	      0.00000000	      0.00000000	      0.00000000	      0.00000000	      0.00000000	      0.00000000	      0.00000000	      0.00000000	      0.00000000	      0.00000000	      0.00000000	      0.00000000	      0.00000000	      0.00000000
     22.53200000	      0.00000000	      0.00000000	      0.00000000	      0.00000000	      0.00000000	      0.00000000	      0.00000000	      0.00000000	      0.00000000	      0.00000000	      0.00000000	      0.00000000	      0.00000000	      0.00000000	      0.00000000	      0.00000000	      0.00000000	      0.00000000
     22.53300000	      0.00000000	      0.00000000	      0.00000000	      0.00000000	      0.00000000	      0.00000000	      0.00000000	      0.00000000	      0.00000000	      0.00000000	      0.00000000	      0.00000000	      0.00000000	      0.00000000	      0.00000000	      0.00000000	      0.00000000	      0.00000000
     22.53400000	      0.00000000	      0.00000000	      0.00000000	      0.00000000	      0.00000000	      0.00000000	      0.00000000	      0.00000000	      0.00000000	      0.00000000	      0.00000000	      0.00000000	      0.00000000	      0.00000000	      0.00000000	      0.00000000	      0.00000000	      0.00000000
